<svg id="Warstwa_1" data-name="Warstwa 1" xmlns="http://www.w3.org/2000/svg" viewBox="0 0 39 28"><defs><style>.cls-1{fill:none;stroke:#ac4989;stroke-linecap:round;stroke-linejoin:round;stroke-width:2px;}</style></defs><g id="Icon_feather-youtube" data-name="Icon feather-youtube"><path id="Path_30" data-name="Path 30" class="cls-1" d="M37.23,5.07A4.69,4.69,0,0,0,34,1.71C31.07,1,19.5,1,19.5,1S7.93,1,5,1.77A4.7,4.7,0,0,0,1.77,5.14,49.08,49.08,0,0,0,1,14a49,49,0,0,0,.77,9A4.69,4.69,0,0,0,5,26.23C7.93,27,19.5,27,19.5,27S31.07,27,34,26.23a4.68,4.68,0,0,0,3.27-3.37A49.29,49.29,0,0,0,38,14a49,49,0,0,0-.77-9Z" transform="translate(0)"/><path id="Path_31" data-name="Path 31" class="cls-1" d="M16.28,18.94,24.9,14l-8.62-4.9Z" transform="translate(0)"/></g></svg>