<svg id="Warstwa_1" data-name="Warstwa 1" xmlns="http://www.w3.org/2000/svg" viewBox="0 0 32 32"><defs><style>.cls-1{fill:none;stroke:#ac4989;stroke-linecap:round;stroke-linejoin:round;stroke-width:2px;}</style></defs><g id="Icon_feather-instagram" data-name="Icon feather-instagram"><path id="Path_32" data-name="Path 32" class="cls-1" d="M8.5,1h15A7.5,7.5,0,0,1,31,8.5v15A7.5,7.5,0,0,1,23.5,31H8.5A7.5,7.5,0,0,1,1,23.5V8.5A7.5,7.5,0,0,1,8.5,1Z"/><path id="Path_33" data-name="Path 33" class="cls-1" d="M22,15.06A6,6,0,1,1,15.18,10a5.77,5.77,0,0,1,1.76,0A6,6,0,0,1,22,15.06Z"/><path id="Path_34" data-name="Path 34" class="cls-1" d="M24.25,7.75h0"/></g></svg>